{
  "accessors": [
    {
      "bufferView": 2,
      "componentType": 5126,
      "count": 33887,
      "max": [
        0.7918220162391663,
        0.19922614097595215,
        3.4781479835510254
      ],
      "min": [
        -6.06690788269043,
        -3.0837574005126953,
        -5.266416549682617
      ],
      "type": "VEC3"
    },
    {
      "bufferView": 2,
      "byteOffset": 406644,
      "componentType": 5126,
      "count": 33887,
      "max": [
        0.9999865889549255,
        0.9999930262565613,
        0.9997785091400146
      ],
      "min": [
        -0.9999489188194275,
        -0.9929741024971008,
        -0.9998655319213867
      ],
      "type": "VEC3"
    },
    {
      "bufferView": 1,
      "componentType": 5126,
      "count": 33887,
      "max": [
        0.9995782971382141,
        0.9994621872901917
      ],
      "min": [
        5.4240332246990874e-05,
        0.0010795422131195664
      ],
      "type": "VEC2"
    },
    {
      "bufferView": 1,
      "byteOffset": 271096,
      "componentType": 5126,
      "count": 33887,
      "max": [
        0.9995782971382141,
        0.9994621872901917
      ],
      "min": [
        5.4240332246990874e-05,
        0.0010795422131195664
      ],
      "type": "VEC2"
    },
    {
      "bufferView": 1,
      "byteOffset": 542192,
      "componentType": 5126,
      "count": 33887,
      "max": [
        0.9995782971382141,
        0.9994621872901917
      ],
      "min": [
        5.4240332246990874e-05,
        0.0010795422131195664
      ],
      "type": "VEC2"
    },
    {
      "bufferView": 1,
      "byteOffset": 813288,
      "componentType": 5126,
      "count": 33887,
      "max": [
        0.9995782971382141,
        0.9994621872901917
      ],
      "min": [
        5.4240332246990874e-05,
        0.0010795422131195664
      ],
      "type": "VEC2"
    },
    {
      "bufferView": 1,
      "byteOffset": 1084384,
      "componentType": 5126,
      "count": 33887,
      "max": [
        0.9995782971382141,
        0.9994621872901917
      ],
      "min": [
        5.4240332246990874e-05,
        0.0010795422131195664
      ],
      "type": "VEC2"
    },
    {
      "bufferView": 0,
      "componentType": 5125,
      "count": 157893,
      "type": "SCALAR"
    }
  ],
  "asset": {
    "extras": {
      "author": "VibrantNebula (https://sketchfab.com/vibrantnebula)",
      "license": "CC-BY-NC-SA-4.0 (http://creativecommons.org/licenses/by-nc-sa/4.0/)",
      "source": "https://sketchfab.com/3d-models/big-stump-florissant-fossil-beds-day-3365-772ba0bd9909457bafeacab5ed4edb97",
      "title": "Big Stump - Florissant Fossil Beds (Day 3/365)"
    },
    "generator": "Sketchfab-12.66.0",
    "version": "2.0"
  },
  "bufferViews": [
    {
      "buffer": 0,
      "byteLength": 631572,
      "name": "floatBufferViews",
      "target": 34963
    },
    {
      "buffer": 0,
      "byteLength": 1355480,
      "byteOffset": 631572,
      "byteStride": 8,
      "name": "floatBufferViews",
      "target": 34962
    },
    {
      "buffer": 0,
      "byteLength": 813288,
      "byteOffset": 1987052,
      "byteStride": 12,
      "name": "floatBufferViews",
      "target": 34962
    }
  ],
  "buffers": [
    {
      "byteLength": 2800340,
      "uri": "scene.bin"
    }
  ],
  "extensionsUsed": [
    "KHR_materials_unlit"
  ],
  "images": [
    {
      "uri": "textures/material_0_baseColor.jpeg"
    }
  ],
  "materials": [
    {
      "extensions": {
        "KHR_materials_unlit": {}
      },
      "name": "material_0",
      "pbrMetallicRoughness": {
        "baseColorTexture": {
          "index": 0
        },
        "metallicFactor": 0.0
      }
    }
  ],
  "meshes": [
    {
      "name": "Object_0",
      "primitives": [
        {
          "attributes": {
            "NORMAL": 1,
            "POSITION": 0,
            "TEXCOORD_0": 2,
            "TEXCOORD_1": 3,
            "TEXCOORD_2": 4,
            "TEXCOORD_3": 5,
            "TEXCOORD_4": 6
          },
          "indices": 7,
          "material": 0,
          "mode": 4
        }
      ]
    }
  ],
  "nodes": [
    {
      "children": [
        1
      ],
      "matrix": [
        0.8271917104721069,
        0.0,
        0.0,
        0.0,
        0.0,
        1.8367345654903987e-16,
        -0.8271917104721069,
        0.0,
        0.0,
        0.8271917104721069,
        1.8367345654903987e-16,
        0.0,
        0.0,
        0.0,
        0.0,
        1.0
      ],
      "name": "Sketchfab_model"
    },
    {
      "children": [
        2
      ],
      "name": "root"
    },
    {
      "children": [
        3
      ],
      "matrix": [
        1.0,
        0.0,
        0.0,
        0.0,
        0.0,
        2.220446049250313e-16,
        1.0,
        0.0,
        0.0,
        -1.0,
        2.220446049250313e-16,
        0.0,
        0.0,
        0.0,
        0.0,
        1.0
      ],
      "name": "GLTF_SceneRootNode"
    },
    {
      "children": [
        4
      ],
      "name": "_0"
    },
    {
      "mesh": 0,
      "name": "Object_4"
    }
  ],
  "samplers": [
    {
      "magFilter": 9729,
      "minFilter": 9987,
      "wrapS": 10497,
      "wrapT": 10497
    }
  ],
  "scene": 0,
  "scenes": [
    {
      "name": "Sketchfab_Scene",
      "nodes": [
        0
      ]
    }
  ],
  "textures": [
    {
      "sampler": 0,
      "source": 0
    }
  ]
}
